<?xml version="1.0" encoding="UTF-8"?><svg id="_レイヤー_1" xmlns="http://www.w3.org/2000/svg" width="15.8323" height="22.9089" viewBox="0 0 15.8323 22.9089"><path d="M7.9221,0c.1507,0,.2934.0297.4282.0892s.2617.1487.3806.2676l6.7921,6.5185c.0952.0872.1705.1943.226.3212s.0833.2776.0833.452c0,.2062-.0476.3925-.1427.5591s-.224.2974-.3866.3925-.3469.1427-.5531.1427c-.1269,0-.2597-.0238-.3985-.0714s-.2716-.1308-.3985-.2498L7.9221,2.5099,1.8794,8.4217c-.1269.1269-.2577.2121-.3925.2557s-.2696.0654-.4044.0654c-.2062,0-.3906-.0476-.5531-.1427s-.2914-.226-.3866-.3925-.1427-.3529-.1427-.5591c0-.1745.0278-.3251.0833-.452s.1308-.2339.226-.3212L7.1013.3569c.119-.119.2478-.2082.3866-.2676s.2835-.0892.4342-.0892ZM7.9221,22.9089c-.1507,0-.2954-.0297-.4342-.0892s-.2676-.1487-.3866-.2676L.3093,16.0335c-.0952-.0952-.1705-.2062-.226-.3331s-.0833-.2776-.0833-.451c0-.2062.0476-.3906.1427-.5531s.224-.2914.3866-.3866.3469-.1427.5531-.1427c.1348,0,.2696.0218.4044.0654s.2657.1289.3925.2557l6.0427,5.9109,6.0308-5.9109c.1269-.119.2597-.2022.3985-.2498s.2716-.0714.3985-.0714c.2062,0,.3906.0476.5531.1427s.2914.224.3866.3866.1427.3469.1427.5531c0,.1735-.0278.3241-.0833.451s-.1308.2379-.226.3331l-6.7921,6.5185c-.119.119-.2458.2082-.3806.2676s-.2776.0892-.4282.0892Z" style="fill:#8c8c97; stroke-width:0px;"/></svg>