<?xml version="1.0" encoding="UTF-8"?><svg id="_レイヤー_1" xmlns="http://www.w3.org/2000/svg" width="22.8242" height="20.3649" viewBox="0 0 22.8242 20.3649"><path d="M4.1088,20.3649c-1.3172,0-2.3312-.3419-3.0422-1.0258s-1.0665-1.6654-1.0665-2.9445V3.9799C0,2.7008.3555,1.7177,1.0665,1.0306s1.7251-1.0306,3.0422-1.0306h8.3158c1.3172,0,2.3312.3435,3.0422,1.0306s1.0665,1.6702,1.0665,2.9493v3.6664h-1.5826v-3.6759c0-.7789-.2195-1.3805-.6586-1.8047s-1.0616-.6364-1.8676-.6364H4.1088c-.806,0-1.4286.2121-1.8676.6364s-.6586,1.0258-.6586,1.8047v12.4241c0,.7852.2195,1.3884.6586,1.8095s1.0616.6317,1.8676.6317h8.3158c.806,0,1.4286-.2106,1.8676-.6317s.6586-1.0243.6586-1.8095v-3.6759h1.5826v3.6759c0,1.2791-.3555,2.2607-1.0665,2.9445s-1.7251,1.0258-3.0422,1.0258H4.1088ZM8.4436,10.1824c0-.2026.0754-.3799.2261-.5319s.3277-.228.5308-.228h9.9967l2.654.1235c.1769.0063.3309.0697.462.19s.1966.2691.1966.4464c0,.171-.0655.3182-.1966.4417s-.2851.1884-.462.1947l-2.654.114h-9.9967c-.2031,0-.3801-.0744-.5308-.2232s-.2261-.3245-.2261-.5272ZM18.2338,6.9624c0-.2026.0655-.3673.1966-.4939s.2949-.19.4915-.19c.19,0,.3637.0728.521.2185l3.1258,3.1345c.0983.095.1655.1868.2015.2755s.0541.1805.0541.2755-.018.1868-.0541.2755-.1032.1805-.2015.2755l-3.1258,3.125c-.1573.152-.3309.228-.521.228-.1966,0-.3604-.0665-.4915-.1995s-.1966-.2976-.1966-.4939c0-.209.0786-.3799.2359-.5129l1.6219-1.4723,1.3565-1.2253-1.3565-1.2348-1.6219-1.4628c-.1573-.133-.2359-.3071-.2359-.5224Z" style="fill:#8a8b96; stroke-width:0px;"/></svg>